#!OML:ASF H:\MichaelJackson\Top Level 1\Subject 1\Session 1\male.ASF
:FULLY-SPECIFIED
:DEGREES
330
root 18.0215 16.6586 -17.1737 11.6047 -3.43251 -4.26325
lowerback -0.801078 7.39313 4.33389
upperback -2.58401 9.85881 -3.30373
thorax -0.919875 4.86785 -5.69919
lowerneck -7.91027 -4.56481 10.9181
upperneck -4.57005 -6.91405 -1.61368
head -0.563538 -3.61969 -2.50138
rclavicle -4.94974e-014 2.46493e-014
rhumerus -39.0983 16.9674 -101.834
rradius 87.2614
rwrist -11.8585
rhand -0.701396 -19.9312
rfingers 7.12502
rthumb 24.9184 -48.3268
lclavicle -4.94974e-014 2.46493e-014
lhumerus -45.15 -12.8996 83.6793
lradius 39.3077
lwrist 9.3952
lhand 0.930462 12.3003
lfingers 7.12502
lthumb 26.4813 40.4699
rfemur -13.5175 -8.33214 24.5391
rtibia 30.6525
rfoot -27.4848 -14.6911
rtoes -3.29538
lfemur -36.4051 7.84985 -14.8896
ltibia 44.309
lfoot -14.5597 9.61001
ltoes 1.36574
331
root 18.0492 16.6494 -17.1197 11.5245 -3.19502 -4.21286
lowerback -0.861178 7.50315 4.08539
upperback -2.67071 10.0017 -3.42323
thorax -0.977884 4.93926 -5.68162
lowerneck -7.99825 -4.7277 11.1029
upperneck -4.42305 -7.15545 -1.56256
head -0.523068 -3.73765 -2.52402
rclavicle 6.42074e-014 2.14687e-014
rhumerus -38.9745 15.9111 -101.328
rradius 85.9456
rwrist -12.347
rhand 0.0183292 -19.611
rfingers 7.12502
rthumb 25.6079 -47.9092
lclavicle 6.42074e-014 2.14687e-014
lhumerus -45.2222 -12.7625 83.3852
lradius 39.3025
lwrist 9.53454
lhand 0.880824 12.3558
lfingers 7.12502
lthumb 26.4338 40.5326
rfemur -13.7239 -9.23184 24.3173
rtibia 31.557
rfoot -27.5802 -14.1799
rtoes -4.76974
lfemur -36.3106 7.72602 -15.0197
ltibia 44.5857
lfoot -14.7005 9.55059
ltoes 0.721129
332
root 18.0798 16.639 -17.0662 11.413 -2.84921 -4.13596
lowerback -0.910711 7.59281 3.86398
upperback -2.74196 10.1178 -3.54823
thorax -1.02418 4.99775 -5.68555
lowerneck -8.08883 -4.90529 11.3026
upperneck -4.26533 -7.41892 -1.52965
head -0.481852 -3.86632 -2.55595
rclavicle -7.12643e-014 -3.18055e-015
rhumerus -38.8948 14.7396 -100.759
rradius 84.5895
rwrist -12.504
rhand 0.686697 -19.2267
rfingers 7.12502
rthumb 26.2479 -47.4313
lclavicle -7.12643e-014 -3.18055e-015
lhumerus -45.2818 -12.72 83.1284
lradius 39.3279
lwrist 9.68274
lhand 0.893982 12.4309
lfingers 7.12502
lthumb 26.4464 40.6058
rfemur -14.02 -10.2112 24.0469
rtibia 32.7101
rfoot -27.7056 -13.5932
rtoes -6.17587
lfemur -36.201 7.50087 -15.17
ltibia 44.8503
lfoot -14.8419 9.47883
ltoes 0.106302
333
root 18.1141 16.6278 -17.0135 11.2532 -2.38313 -4.04884
lowerback -0.925232 7.65488 3.70551
upperback -2.79515 10.1985 -3.67364
thorax -1.06524 5.03825 -5.72855
lowerneck -8.17072 -5.09664 11.5075
upperneck -4.10231 -7.70092 -1.50869
head -0.442833 -4.00394 -2.5928
rclavicle -4.11484e-014 -7.95139e-016
rhumerus -38.8683 13.4679 -100.13
rradius 83.1979
rwrist -12.2865
rhand 1.27319 -18.7715
rfingers 7.12502
rthumb 26.8093 -46.8913
lclavicle -4.11484e-014 -7.95139e-016
lhumerus -45.3344 -12.768 82.9141
lradius 39.3798
lwrist 9.82424
lhand 0.945471 12.5269
lfingers 7.12502
lthumb 26.4957 40.6944
rfemur -14.3965 -11.2771 23.7287
rtibia 34.1299
rfoot -27.8288 -12.8865
rtoes -7.56424
lfemur -36.0522 7.17238 -15.3247
ltibia 45.0921
lfoot -15.0063 9.38126
ltoes -0.397698
